<svg width="70" height="70" viewBox="0 0 70 70" fill="none" xmlns="http://www.w3.org/2000/svg">
<circle cx="35" cy="35" r="35" fill="#FFF3F7"/>
<g clip-path="url(#clip0_19_5796)">
<path d="M49.6667 47.8333H47.8333V22.1667C47.8333 21.1583 47.0083 20.3333 46 20.3333H38.6667C38.6667 19.325 37.8417 18.5 36.8333 18.5H24C22.9917 18.5 22.1667 19.325 22.1667 20.3333V47.8333H20.3333C19.325 47.8333 18.5 48.6583 18.5 49.6667C18.5 50.675 19.325 51.5 20.3333 51.5H36.8333C37.8417 51.5 38.6667 50.675 38.6667 49.6667V24H44.1667V49.6667C44.1667 50.675 44.9917 51.5 46 51.5H49.6667C50.675 51.5 51.5 50.675 51.5 49.6667C51.5 48.6583 50.675 47.8333 49.6667 47.8333ZM35 36.8333H31.3333V33.1667H35V36.8333Z" fill="#FD5F93"/>
</g>
<defs>
<clipPath id="clip0_19_5796">
<rect width="44" height="44" fill="white" transform="translate(13 13)"/>
</clipPath>
</defs>
</svg>
