<svg width="70" height="70" viewBox="0 0 70 70" fill="none" xmlns="http://www.w3.org/2000/svg">
<circle cx="35" cy="35" r="35" fill="#FFFAEB"/>
<g clip-path="url(#clip0_19_5700)">
<path d="M52.875 44.1667C52.875 43.7633 52.82 43.3967 52.765 43.0117L54.305 41.6733C54.635 41.38 54.7083 40.9033 54.4883 40.5183L53.4067 38.6483C53.1867 38.2633 52.7283 38.0983 52.325 38.245L50.3817 38.905C49.795 38.41 49.135 38.025 48.4017 37.75L47.9983 35.7517C47.9067 35.33 47.54 35.0183 47.1 35.0183H44.9367C44.4967 35.0183 44.13 35.33 44.0383 35.7517L43.635 37.75C42.9017 38.025 42.2417 38.41 41.655 38.905L39.7117 38.245C39.29 38.0983 38.85 38.2817 38.63 38.6483L37.5483 40.5183C37.3283 40.9033 37.4017 41.38 37.7317 41.6733L39.2717 43.0117C39.2167 43.3967 39.1617 43.7633 39.1617 44.1667C39.1617 44.57 39.2167 44.9367 39.2717 45.3217L37.7317 46.66C37.4017 46.9533 37.3283 47.43 37.5483 47.815L38.63 49.685C38.85 50.07 39.3083 50.235 39.7117 50.0883L41.655 49.4283C42.2417 49.9233 42.9017 50.3083 43.635 50.5833L44.0383 52.5817C44.13 53.0033 44.4967 53.315 44.9367 53.315H47.1C47.54 53.315 47.9067 53.0033 47.9983 52.5817L48.4017 50.5833C49.135 50.3083 49.795 49.9233 50.3817 49.4283L52.325 50.0883C52.7467 50.235 53.1867 50.0517 53.4067 49.685L54.4883 47.815C54.7083 47.43 54.635 46.9533 54.305 46.66L52.765 45.3217C52.82 44.9367 52.875 44.57 52.875 44.1667ZM46 47.8333C43.9833 47.8333 42.3333 46.1833 42.3333 44.1667C42.3333 42.15 43.9833 40.5 46 40.5C48.0167 40.5 49.6667 42.15 49.6667 44.1667C49.6667 46.1833 48.0167 47.8333 46 47.8333ZM38.6667 33.6433V24H44.1667V31.3333H47.8333V22.1667C47.8333 21.1583 47.0083 20.3333 46 20.3333H38.6667C38.6667 19.325 37.8417 18.5 36.8333 18.5H24C22.9917 18.5 22.1667 19.325 22.1667 20.3333V47.8333H20.3333C19.325 47.8333 18.5 48.6583 18.5 49.6667C18.5 50.675 19.325 51.5 20.3333 51.5H35.4767C34.0283 49.4283 33.1667 46.8983 33.1667 44.1667C33.1667 39.8033 35.3483 35.9717 38.6667 33.6433ZM31.3333 35C31.3333 33.9917 32.1583 33.1667 33.1667 33.1667C34.175 33.1667 35 33.9917 35 35C35 36.0083 34.175 36.8333 33.1667 36.8333C32.1583 36.8333 31.3333 36.0083 31.3333 35Z" fill="#ECB100"/>
</g>
<defs>
<clipPath id="clip0_19_5700">
<rect width="44" height="44" fill="white" transform="translate(13 13)"/>
</clipPath>
</defs>
</svg>
